<?xml version="1.0" encoding="UTF-8"?>
<svg viewBox="0 0 24 24" version="1.1" xmlns="http://www.w3.org/2000/svg" xmlns:xlink="http://www.w3.org/1999/xlink">
    <title>B3BC4016-7297-452C-9F18-EE788243BD17@3x</title>
    <g id="Page-1" stroke="none" stroke-width="1" fill="none" fill-rule="evenodd">
        <g id="Home" transform="translate(-1357.000000, -63.000000)">
            <g id="Header" transform="translate(0.000000, 42.000000)">
                <g id="icon/heart" transform="translate(1357.000000, 21.000000)">
                    <g id="cart" transform="translate(4.000000, 4.000000)" fill="#2F3544" fill-rule="nonzero">
                        <path d="M0,0.533333333 C0,0.238781467 0.238781467,0 0.533333333,0 L2.13333333,0 C2.37811758,0 2.59142889,0.166758312 2.65066667,0.404266667 L3.08266667,2.13333333 L15.4666667,2.13333333 C15.6252113,2.13348017 15.7754717,2.20415698 15.8766854,2.32619058 C15.977899,2.44822417 16.0195723,2.60896231 15.9904,2.7648 L14.3904,11.2981333 C14.3432002,11.5502746 14.1231875,11.7330957 13.8666667,11.7333333 L4.26666667,11.7333333 C4.01014579,11.7330957 3.79013308,11.5502746 3.74293333,11.2981333 L2.144,2.7808 L1.71733333,1.06666667 L0.533333333,1.06666667 C0.238781467,1.06666667 0,0.8278852 0,0.533333333 Z M3.3088,3.2 L4.70933333,10.6666667 L13.424,10.6666667 L14.8245333,3.2 L3.3088,3.2 Z M5.33333333,11.7333333 C4.15512587,11.7333333 3.2,12.6884592 3.2,13.8666667 C3.2,15.0448741 4.15512587,16 5.33333333,16 C6.5115408,16 7.46666667,15.0448741 7.46666667,13.8666667 C7.46666667,12.6884592 6.5115408,11.7333333 5.33333333,11.7333333 Z M12.8,11.7333333 C11.6217925,11.7333333 10.6666667,12.6884592 10.6666667,13.8666667 C10.6666667,15.0448741 11.6217925,16 12.8,16 C13.9782075,16 14.9333333,15.0448741 14.9333333,13.8666667 C14.9333333,12.6884592 13.9782075,11.7333333 12.8,11.7333333 Z M5.33333333,12.8 C4.7442296,12.8 4.26666667,13.2775629 4.26666667,13.8666667 C4.26666667,14.4557704 4.7442296,14.9333333 5.33333333,14.9333333 C5.92243707,14.9333333 6.4,14.4557704 6.4,13.8666667 C6.4,13.2775629 5.92243707,12.8 5.33333333,12.8 Z M12.8,12.8 C12.2108963,12.8 11.7333333,13.2775629 11.7333333,13.8666667 C11.7333333,14.4557704 12.2108963,14.9333333 12.8,14.9333333 C13.3891037,14.9333333 13.8666667,14.4557704 13.8666667,13.8666667 C13.8666667,13.2775629 13.3891037,12.8 12.8,12.8 Z" id="Shape"></path>
                    </g>
                    <rect id="Rectangle" x="0" y="0" width="24" height="24"></rect>
                </g>
            </g>
        </g>
    </g>
</svg>