<?xml version="1.0" encoding="UTF-8"?>
<svg viewBox="0 0 24 24" version="1.1" xmlns="http://www.w3.org/2000/svg" xmlns:xlink="http://www.w3.org/1999/xlink">
    <title>3FD199DF-AB32-4407-93AE-8CCEB9FC8B79@3x</title>
    <g id="Page-1" stroke="none" stroke-width="1" fill="none" fill-rule="evenodd">
        <g id="Home" transform="translate(-1121.000000, -63.000000)">
            <g id="Header" transform="translate(0.000000, 42.000000)">
                <g id="icon/heart" transform="translate(1121.000000, 21.000000)">
                    <rect id="Rectangle" x="0" y="0" width="24" height="24"></rect>
                    <g id="journal" transform="translate(5.000000, 4.000000)" fill="#2F3544" fill-rule="nonzero">
                        <path d="M2.97794118,0 L12.9044118,0 C14.0008594,0 14.8897059,0.888846453 14.8897059,1.98529412 L14.8897059,13.8970588 C14.8897059,14.9935065 14.0008594,15.8823529 12.9044118,15.8823529 L2.97794118,15.8823529 C1.88149351,15.8823529 0.992647059,14.9935065 0.992647059,13.8970588 L0.992647059,12.9044118 L1.98529412,12.9044118 L1.98529412,13.8970588 C1.98529412,14.4452827 2.42971734,14.8897059 2.97794118,14.8897059 L12.9044118,14.8897059 C13.4526356,14.8897059 13.8970588,14.4452827 13.8970588,13.8970588 L13.8970588,1.98529412 C13.8970588,1.43707029 13.4526356,0.992647059 12.9044118,0.992647059 L2.97794118,0.992647059 C2.42971734,0.992647059 1.98529412,1.43707029 1.98529412,1.98529412 L1.98529412,2.97794118 L0.992647059,2.97794118 L0.992647059,1.98529412 C0.992647059,0.888846453 1.88149351,0 2.97794118,0 Z" id="Path"></path>
                        <path d="M0.992647059,4.96323529 L0.992647059,4.46691176 C0.992647059,4.19279985 1.21485867,3.97058824 1.48897059,3.97058824 C1.7630825,3.97058824 1.98529412,4.19279985 1.98529412,4.46691176 L1.98529412,4.96323529 L2.48161765,4.96323529 C2.75572956,4.96323529 2.97794118,5.18544691 2.97794118,5.45955882 C2.97794118,5.73367074 2.75572956,5.95588235 2.48161765,5.95588235 L0.496323529,5.95588235 C0.222211613,5.95588235 0,5.73367074 0,5.45955882 C0,5.18544691 0.222211613,4.96323529 0.496323529,4.96323529 L0.992647059,4.96323529 Z M0.992647059,7.94117647 L0.992647059,7.44485294 C0.992647059,7.17074102 1.21485867,6.94852941 1.48897059,6.94852941 C1.7630825,6.94852941 1.98529412,7.17074102 1.98529412,7.44485294 L1.98529412,7.94117647 L2.48161765,7.94117647 C2.75572956,7.94117647 2.97794118,8.16338808 2.97794118,8.4375 C2.97794118,8.71161192 2.75572956,8.93382353 2.48161765,8.93382353 L0.496323529,8.93382353 C0.222211613,8.93382353 0,8.71161192 0,8.4375 C0,8.16338808 0.222211613,7.94117647 0.496323529,7.94117647 L0.992647059,7.94117647 Z M0.992647059,10.9191176 L0.992647059,10.4227941 C0.992647059,10.1486822 1.21485867,9.92647059 1.48897059,9.92647059 C1.7630825,9.92647059 1.98529412,10.1486822 1.98529412,10.4227941 L1.98529412,10.9191176 L2.48161765,10.9191176 C2.75572956,10.9191176 2.97794118,11.1413293 2.97794118,11.4154412 C2.97794118,11.6895531 2.75572956,11.9117647 2.48161765,11.9117647 L0.496323529,11.9117647 C0.222211613,11.9117647 0,11.6895531 0,11.4154412 C0,11.1413293 0.222211613,10.9191176 0.496323529,10.9191176 L0.992647059,10.9191176 Z" id="Shape"></path>
                    </g>
                </g>
            </g>
        </g>
    </g>
</svg>