<?xml version="1.0" encoding="UTF-8"?>
<svg width="24px" height="24px" viewBox="0 0 24 24" version="1.1" xmlns="http://www.w3.org/2000/svg" xmlns:xlink="http://www.w3.org/1999/xlink">
    <title>7601C4D8-A077-4078-9E65-4C4AAD978C6F@3x</title>
    <g id="Page-1" stroke="none" stroke-width="1" fill="none" fill-rule="evenodd">
        <g id="Home" transform="translate(-98.000000, -2004.000000)">
            <g id="Footer" transform="translate(-1.000000, 1871.000000)">
                <g id="Group-3" transform="translate(99.000000, 131.000000)">
                    <g id="icon" transform="translate(0.000000, 2.000000)">
                        <rect id="Rectangle" x="0" y="0" width="24" height="24"></rect>
                        <g id="facebook" transform="translate(2.000000, 2.000000)" fill-rule="nonzero">
                            <path d="M20,10 C20,4.47658333 15.5234167,0 10,0 C4.47658333,0 0,4.47658333 0,10 C0,14.9922083 3.65625,19.1289167 8.4375,19.8789167 L8.4375,12.890625 L5.89841667,12.890625 L5.89841667,10 L8.4375,10 L8.4375,7.796875 C8.4375,5.291 9.92970833,3.90625 12.2148333,3.90625 C13.3085833,3.90625 14.453125,4.1015625 14.453125,4.1015625 L14.453125,6.5625 L13.1914167,6.5625 C11.9492083,6.5625 11.5625,7.334 11.5625,8.125 L11.5625,10 L14.3359167,10 L13.8925833,12.890625 L11.5625,12.890625 L11.5625,19.8789167 C16.34375,19.1289167 20,14.9922083 20,10 Z" id="Path" fill="#FFFFFF"></path>
                            <path d="M13.8925833,12.890625 L14.3359167,10 L11.5625,10 L11.5625,8.125 C11.5625,7.334 11.9492083,6.5625 13.1914167,6.5625 L14.453125,6.5625 L14.453125,4.1015625 C14.453125,4.1015625 13.3085833,3.90625 12.2148333,3.90625 C9.92970833,3.90625 8.4375,5.291 8.4375,7.796875 L8.4375,10 L5.89841667,10 L5.89841667,12.890625 L8.4375,12.890625 L8.4375,19.8789167 C8.94725,19.959 9.46875,20 10,20 C10.53125,20 11.05275,19.959 11.5625,19.8789167 L11.5625,12.890625 L13.8925833,12.890625 Z" id="Path" fill="#2F3544"></path>
                        </g>
                    </g>
                </g>
            </g>
        </g>
    </g>
</svg>