<?xml version="1.0" encoding="UTF-8"?>
<svg width="160px" height="57px" viewBox="0 0 160 57" version="1.1" xmlns="http://www.w3.org/2000/svg" xmlns:xlink="http://www.w3.org/1999/xlink">
    <title>AA793A27-23DD-4BFF-8375-856F6F704F8E@3x</title>
    <g id="Preorder" stroke="none" stroke-width="1" fill="none" fill-rule="evenodd">
        <g id="Login-Brand+Country" transform="translate(-640.000000, -72.000000)" fill="#000000" fill-rule="nonzero">
            <g id="Logo/red" transform="translate(640.000000, 72.000000)">
                <g id="FENIX_Int_logo" transform="translate(0.778378, 0.860216)">
                    <path d="M0.0864864865,8.42160053 C0,6.94691945 0.259459459,5.47223837 0.778378378,4.08430323 C1.2972973,3.04335188 2.07567568,2.08914647 3.11351351,1.48192485 C3.54594595,1.22168702 4.06486486,0.961449178 4.58378378,0.787957286 C5.18918919,0.614465394 5.79459459,0.527719448 6.4,0.440973502 C6.65945946,0.440973502 7.17837838,0.354227556 7.6972973,0.354227556 L20.9297297,0.354227556 C21.5351351,0.354227556 22.0540541,0.440973502 22.6594595,0.527719448 C23.0918919,0.614465394 23.5243243,0.70121134 23.9567568,0.874703232 C24.3027027,1.04819512 24.7351351,1.22168702 25.0810811,1.39517891 C25.9459459,1.91565458 26.7243243,2.6963681 27.2432432,3.6505735 C27.7621622,4.60477891 28.0216216,5.64573026 28.0216216,6.68668161 C28.0216216,7.64088702 27.8486486,8.59509242 27.4162162,9.54929783 C27.0702703,10.4167573 26.5513514,11.1974708 25.8594595,11.8046924 C25.2540541,12.3251681 24.4756757,12.7588978 23.6972973,13.0191357 C22.7459459,13.2793735 21.7081081,13.3661194 20.6702703,13.3661194 L13.7513514,13.3661194 L13.7513514,16.3154816 L17.9891892,16.3154816 C18.8540541,16.3154816 19.8054054,16.3154816 20.6702703,16.4889735 C21.2756757,16.5757194 21.8810811,16.8359573 22.4,17.1829411 C23.0918919,17.6166708 23.6972973,18.2238924 24.0432432,18.91786 C24.4756757,19.6118276 24.6486486,20.479287 24.6486486,21.2600005 C24.7351351,22.6479357 24.2162162,24.0358708 23.0918919,24.9900762 C21.7945946,25.9442816 20.2378378,26.3780113 18.5945946,26.2912654 L13.6648649,26.2912654 L13.6648649,35.3128438 C13.6648649,35.9200654 13.5783784,36.4405411 13.4918919,36.9610167 C13.4054054,37.3947465 13.3189189,37.7417303 13.1459459,38.17546 C12.972973,38.5224438 12.8,38.9561735 12.5405405,39.3031573 C11.9351351,40.2573627 11.1567568,41.0380762 10.1189189,41.6452978 C9.08108108,42.2525194 7.95675676,42.5127573 6.83243243,42.5127573 C5.62162162,42.5127573 4.32432432,42.1657735 3.28648649,41.5585519 C2.24864865,40.9513303 1.38378378,40.0838708 0.864864865,38.9561735 C0.691891892,38.6091897 0.518918919,38.2622059 0.432432432,37.9152222 C0.345945946,37.5682384 0.259459459,37.1345086 0.172972973,36.7007789 C0.0864864865,36.1803032 0,35.6598276 0,35.1393519 L0,8.42160053 L0.0864864865,8.42160053 Z M40.2162162,41.9922816 C39.0918919,41.9922816 37.9675676,41.9922816 36.8432432,41.9055357 C36.2378378,41.8187897 35.5459459,41.6452978 34.9405405,41.4718059 C32.8648649,40.6910924 31.3081081,38.7826816 31.0486486,36.527287 L30.9621622,35.9200654 C30.8756757,35.6598276 30.8756757,35.3995897 30.8756757,35.2260978 L30.8756757,7.55414107 C30.8756757,7.12041134 30.8756757,6.68668161 30.9621622,6.25295188 C30.9621622,5.99271404 31.0486486,5.64573026 31.1351351,5.38549242 C31.2216216,5.12525458 31.3081081,4.86501675 31.4810811,4.51803296 C31.7405405,3.73731945 32.2594595,3.04335188 32.7783784,2.43613026 C33.2972973,1.82890864 33.9891892,1.39517891 34.6810811,1.04819512 C35.027027,0.874703232 35.372973,0.787957286 35.7189189,0.70121134 C36.0648649,0.614465394 36.4108108,0.527719448 36.7567568,0.527719448 C37.1891892,0.527719448 37.6216216,0.440973502 38.227027,0.440973502 L52.5837838,0.440973502 C52.8432432,0.440973502 53.1027027,0.527719448 53.3621622,0.527719448 L54.0540541,0.70121134 C55.4378378,1.04819512 56.6486486,1.82890864 57.5135135,2.86985999 C58.3783784,3.99755729 58.8108108,5.29874647 58.8108108,6.77342756 C58.8108108,7.72763296 58.6378378,8.76858431 58.2054054,9.63604377 C57.8594595,10.5035032 57.2540541,11.2842167 56.5621622,11.8914384 C55.9567568,12.411914 55.2648649,12.8456438 54.4,13.0191357 C53.3621622,13.2793735 52.3243243,13.3661194 51.2864865,13.3661194 L44.4540541,13.3661194 L44.4540541,16.2287357 L49.9027027,16.2287357 C51.372973,16.1419897 52.8432432,16.6624654 53.9675676,17.6166708 C54.9189189,18.5708762 55.5243243,19.8720654 55.4378378,21.1732546 C55.5243243,22.7346816 54.8324324,24.1226167 53.6216216,25.0768222 C53.1027027,25.5105519 52.4972973,25.7707897 51.8918919,25.9442816 C51.1135135,25.9442816 50.2486486,26.0310276 49.3837838,26.0310276 L44.4540541,26.0310276 L44.4540541,29.0671357 L50.7675676,29.0671357 C51.8918919,29.0671357 53.1027027,29.1538816 54.227027,29.4141194 C56.9081081,30.194833 58.7243243,32.7104654 58.7243243,35.4863357 C58.7243243,36.4405411 58.5513514,37.3947465 58.1189189,38.2622059 C57.772973,39.1296654 57.1675676,39.9103789 56.4756757,40.5176005 L55.4378378,41.298314 C55.0918919,41.4718059 54.6594595,41.6452978 54.3135135,41.7320438 C53.7945946,41.8187897 53.3621622,41.9055357 52.8432432,41.9055357 C52.2378378,41.9055357 51.6324324,41.9922816 50.8540541,41.9922816 L40.2162162,41.9922816 Z M76.0216216,25.5972978 L76.0216216,34.3586384 C76.0216216,35.3995897 75.9351351,36.527287 75.6756757,37.5682384 C75.1567568,39.3899032 73.8594595,40.8645843 72.1297297,41.7320438 C70.227027,42.5995032 68.0648649,42.5995032 66.1621622,41.6452978 C65.2108108,41.2115681 64.4324324,40.5176005 63.7405405,39.6501411 C63.2216216,38.9561735 62.7891892,38.17546 62.6162162,37.3080005 C62.4432432,36.1803032 62.2702703,34.96586 62.3567568,33.8381627 L62.3567568,7.38064918 C62.2702703,5.38549242 62.9621622,3.47708161 64.3459459,2.00240053 C65.7297297,0.614465394 67.6324324,-0.0795021737 69.5351351,0.00724377225 C70.4864865,0.00724377225 71.4378378,0.180735664 72.2162162,0.70121134 C73.1675676,1.22168702 73.9459459,1.91565458 74.6378378,2.78311404 L85.5351351,16.2287357 L85.5351351,8.42160053 C85.5351351,7.38064918 85.6216216,6.25295188 85.7945946,5.21200053 C85.9675676,4.43128702 86.3135135,3.6505735 86.8324324,2.95660593 C87.4378378,2.00240053 88.3027027,1.30843296 89.2540541,0.787957286 C90.2054054,0.26748161 91.3297297,0.00724377225 92.4540541,0.00724377225 C93.4054054,0.00724377225 94.4432432,0.26748161 95.3081081,0.70121134 C96.172973,1.13494107 97.0378378,1.74216269 97.6432432,2.5228762 C98.1621622,3.21684377 98.5945946,3.99755729 98.8540541,4.86501675 C99.1135135,5.9059681 99.2864865,6.94691945 99.2,7.9878708 L99.2,33.4911789 C99.2,34.7923681 99.1135135,36.0068113 98.8540541,37.3080005 C98.5945946,38.17546 98.2486486,39.0429194 97.6432432,39.736887 C97.0378378,40.5176005 96.2594595,41.2115681 95.3081081,41.6452978 C94.3567568,42.0790276 93.3189189,42.3392654 92.2810811,42.3392654 C90.1189189,42.3392654 88.0432432,41.298314 86.8324324,39.5633951 L76.0216216,25.5972978 Z M104.562162,8.59509242 C104.562162,7.72763296 104.562162,6.94691945 104.648649,6.33969783 C104.648649,5.81922215 104.735135,5.21200053 104.908108,4.69152485 C104.994595,4.25779512 105.167568,3.82406539 105.427027,3.39033566 C105.686486,2.95660593 105.945946,2.60962215 106.291892,2.26263837 C107.589189,0.787957286 109.405405,-0.0795021737 111.394595,0.00724377225 C113.297297,-0.0795021737 115.2,0.787957286 116.497297,2.17589242 C117.189189,2.86985999 117.621622,3.73731945 117.967568,4.69152485 C118.227027,5.99271404 118.4,7.29390323 118.313514,8.59509242 L118.313514,34.3586384 C118.313514,35.4863357 118.227027,36.614033 117.881081,37.6549843 C117.621622,38.5224438 117.189189,39.3031573 116.497297,39.9971249 C115.805405,40.6910924 115.027027,41.298314 114.162162,41.6452978 C113.297297,42.0790276 112.345946,42.2525194 111.394595,42.2525194 C110.443243,42.2525194 109.491892,42.0790276 108.540541,41.6452978 C107.675676,41.298314 106.897297,40.7778384 106.291892,40.0838708 C105.686486,39.3899032 105.167568,38.6091897 104.908108,37.7417303 C104.648649,36.614033 104.475676,35.3995897 104.562162,34.2718924 L104.562162,8.59509242 L104.562162,8.59509242 Z M140.713514,32.0164978 L135.091892,39.3031573 C134.4,40.2573627 133.535135,41.0380762 132.497297,41.6452978 C131.545946,42.0790276 130.508108,42.3392654 129.47027,42.3392654 C126.702703,42.3392654 124.194595,40.6910924 123.156757,38.17546 C122.810811,37.3947465 122.637838,36.4405411 122.637838,35.5730816 C122.637838,34.7056222 122.810811,33.9249086 123.07027,33.1441951 C123.32973,32.3634816 123.762162,31.5827681 124.281081,30.8888005 L132.064865,20.566033 L126.27027,12.8456438 C125.491892,11.8046924 124.713514,10.6769951 124.194595,9.54929783 C123.762162,8.76858431 123.589189,7.81437891 123.589189,6.94691945 C123.589189,6.07945999 123.762162,5.12525458 124.108108,4.34454107 C124.454054,3.56382756 124.972973,2.78311404 125.664865,2.17589242 C126.356757,1.5686708 127.048649,1.04819512 127.913514,0.70121134 C128.778378,0.354227556 129.643243,0.0939897182 130.594595,0.180735664 C132.92973,0.180735664 135.091892,1.39517891 136.389189,3.30358972 L140.8,9.20231404 L144.951351,3.99755729 C145.72973,2.86985999 146.767568,1.91565458 147.891892,1.04819512 C148.843243,0.440973502 149.881081,0.180735664 151.005405,0.180735664 C151.956757,0.180735664 152.821622,0.354227556 153.686486,0.70121134 C154.551351,1.04819512 155.243243,1.5686708 155.935135,2.17589242 C156.540541,2.78311404 157.059459,3.56382756 157.405405,4.34454107 C157.751351,5.12525458 157.924324,6.07945999 157.924324,6.94691945 C157.924324,8.50834647 157.232432,10.2432654 155.762162,12.1516762 L149.448649,20.566033 L157.232432,30.9755465 C158.183784,32.2767357 158.789189,33.9249086 158.702703,35.5730816 C158.702703,36.527287 158.52973,37.4814924 158.183784,38.3489519 C157.837838,39.1296654 157.318919,39.823633 156.713514,40.4308546 C156.108108,41.0380762 155.416216,41.5585519 154.551351,41.9055357 C151.610811,43.1199789 148.151351,42.1657735 146.335135,39.4766492 L140.713514,32.0164978 L140.713514,32.0164978 Z M0.259459459,52.7487789 C0.259459459,51.8813194 0.518918919,51.01386 1.12432432,50.4066384 C1.72972973,49.7994167 2.50810811,49.5391789 3.28648649,49.5391789 C4.06486486,49.5391789 4.92972973,49.7994167 5.44864865,50.4066384 C6.57297297,51.7945735 6.57297297,53.7897303 5.44864865,55.0909194 C4.84324324,55.6981411 4.06486486,55.9583789 3.28648649,55.9583789 C2.50810811,55.9583789 1.64324324,55.6981411 1.12432432,55.0909194 C0.518918919,54.4836978 0.259459459,53.6162384 0.259459459,52.7487789 Z M1.81621622,52.7487789 C1.81621622,53.2692546 1.9027027,53.7029843 2.24864865,54.136714 C2.50810811,54.4836978 2.85405405,54.6571897 3.28648649,54.6571897 C3.71891892,54.6571897 4.15135135,54.4836978 4.41081081,54.22346 C4.67027027,53.7897303 4.84324324,53.3560005 4.84324324,52.8355249 C4.84324324,52.3150492 4.75675676,51.7945735 4.41081081,51.4475897 C4.15135135,51.1006059 3.71891892,50.927114 3.28648649,50.927114 C2.85405405,50.927114 2.42162162,51.1006059 2.16216216,51.4475897 C1.98918919,51.7945735 1.81621622,52.3150492 1.81621622,52.7487789 Z M7.6972973,53.1825086 L7.6972973,50.5801303 C7.6972973,50.3198924 7.6972973,50.0596546 7.87027027,49.7994167 C8.12972973,49.5391789 8.56216216,49.452433 8.82162162,49.7126708 L8.90810811,49.7994167 C9.08108108,50.0596546 9.08108108,50.3198924 9.08108108,50.5801303 L9.08108108,53.0090167 C9.08108108,53.4427465 9.16756757,53.8764762 9.42702703,54.22346 C9.68648649,54.4836978 10.0324324,54.6571897 10.3783784,54.6571897 C10.7243243,54.6571897 11.0702703,54.4836978 11.3297297,54.22346 C11.5891892,53.8764762 11.6756757,53.4427465 11.6756757,53.0090167 L11.6756757,50.5801303 C11.6756757,50.3198924 11.6756757,50.0596546 11.8486486,49.7994167 C12.1081081,49.5391789 12.5405405,49.452433 12.8,49.7126708 L12.8864865,49.7994167 C13.0594595,50.0596546 13.0594595,50.3198924 13.0594595,50.5801303 L13.0594595,53.1825086 C13.1459459,53.9632222 12.8864865,54.6571897 12.3675676,55.2644113 C11.8486486,55.784887 11.1567568,56.0451249 10.4648649,56.0451249 C9.77297297,56.0451249 8.99459459,55.784887 8.56216216,55.2644113 C7.87027027,54.7439357 7.6972973,53.9632222 7.6972973,53.1825086 L7.6972973,53.1825086 Z M15.6540541,51.01386 L15.1351351,51.01386 C14.8756757,51.01386 14.6162162,51.01386 14.3567568,50.8403681 C14.1837838,50.7536222 14.0972973,50.4933843 14.0972973,50.3198924 C14.0972973,50.1464005 14.1837838,49.9729086 14.3567568,49.7994167 C14.6162162,49.7126708 14.8756757,49.6259249 15.1351351,49.6259249 L17.5567568,49.6259249 C17.8162162,49.6259249 18.0756757,49.6259249 18.3351351,49.7994167 C18.5081081,49.8861627 18.5945946,50.0596546 18.5945946,50.3198924 C18.5945946,50.4933843 18.5081081,50.6668762 18.3351351,50.8403681 C18.0756757,50.927114 17.8162162,51.01386 17.5567568,51.01386 L17.0378378,51.01386 L17.0378378,54.9174276 C17.0378378,55.1776654 17.0378378,55.4379032 16.8648649,55.6981411 C16.6054054,55.9583789 16.172973,56.0451249 15.9135135,55.784887 L15.827027,55.6981411 C15.6540541,55.4379032 15.6540541,55.1776654 15.6540541,54.9174276 L15.6540541,51.01386 L15.6540541,51.01386 Z M21.7945946,49.7126708 C22.1405405,49.7126708 22.4864865,49.7126708 22.8324324,49.7994167 C23.0918919,49.8861627 23.3513514,49.9729086 23.6108108,50.1464005 C24.0432432,50.4066384 24.3891892,50.7536222 24.5621622,51.1873519 C24.8216216,51.6210816 24.9081081,52.1415573 24.9081081,52.662033 C24.9945946,53.5294924 24.6486486,54.3102059 24.1297297,55.0041735 C23.5243243,55.6113951 22.7459459,55.871633 21.9675676,55.871633 L20.6702703,55.871633 C20.4108108,55.871633 20.1513514,55.871633 19.8918919,55.6981411 C19.7189189,55.5246492 19.6324324,55.2644113 19.7189189,55.0041735 L19.7189189,50.6668762 C19.7189189,50.4066384 19.8054054,50.1464005 19.9783784,49.8861627 C20.1513514,49.7126708 20.4972973,49.6259249 20.7567568,49.7126708 L21.7945946,49.7126708 L21.7945946,49.7126708 Z M21.1027027,54.5704438 L21.7081081,54.5704438 C22.1405405,54.5704438 22.6594595,54.3969519 23.0054054,54.136714 C23.3513514,53.7029843 23.4378378,53.2692546 23.4378378,52.7487789 C23.6108108,51.9680654 23.0054054,51.1873519 22.227027,51.01386 L21.1027027,51.01386 L21.1027027,54.5704438 Z M26.2054054,52.7487789 C26.2054054,51.8813194 26.4648649,51.01386 27.0702703,50.4066384 C28.2810811,49.1921951 30.2702703,49.1921951 31.4810811,50.4066384 C32.6054054,51.7945735 32.6054054,53.7897303 31.4810811,55.0909194 C30.2702703,56.3053627 28.2810811,56.3053627 27.0702703,55.0909194 C26.4648649,54.4836978 26.2054054,53.6162384 26.2054054,52.7487789 L26.2054054,52.7487789 Z M27.7621622,52.7487789 C27.7621622,53.2692546 27.8486486,53.7029843 28.1945946,54.136714 C28.7135135,54.7439357 29.5783784,54.8306816 30.1837838,54.3102059 C30.2702703,54.22346 30.3567568,54.22346 30.3567568,54.136714 C30.6162162,53.7029843 30.7891892,53.2692546 30.7891892,52.7487789 C30.7891892,52.2283032 30.7027027,51.7945735 30.4432432,51.3608438 C29.9243243,50.7536222 29.0594595,50.6668762 28.4540541,51.1006059 L28.1945946,51.3608438 C27.9351351,51.7945735 27.7621622,52.3150492 27.7621622,52.7487789 L27.7621622,52.7487789 Z M33.5567568,52.7487789 C33.5567568,51.8813194 33.8162162,51.01386 34.4216216,50.4066384 C35.6324324,49.1921951 37.6216216,49.1921951 38.8324324,50.4066384 C39.9567568,51.7945735 39.9567568,53.7897303 38.8324324,55.0909194 C37.6216216,56.3053627 35.6324324,56.3053627 34.4216216,55.0909194 C33.8162162,54.4836978 33.4702703,53.6162384 33.5567568,52.7487789 L33.5567568,52.7487789 Z M35.027027,52.7487789 C35.027027,53.2692546 35.1135135,53.7029843 35.4594595,54.136714 C35.9783784,54.7439357 36.8432432,54.8306816 37.4486486,54.3102059 C37.5351351,54.22346 37.6216216,54.22346 37.6216216,54.136714 C37.8810811,53.7029843 38.0540541,53.2692546 38.0540541,52.7487789 C38.0540541,52.2283032 37.9675676,51.7078276 37.6216216,51.3608438 C37.1027027,50.7536222 36.2378378,50.6668762 35.6324324,51.1006059 L35.372973,51.3608438 C35.2,51.7945735 35.027027,52.3150492 35.027027,52.7487789 L35.027027,52.7487789 Z M42.3783784,53.4427465 L42.3783784,55.0041735 C42.3783784,55.2644113 42.3783784,55.5246492 42.2054054,55.784887 C41.9459459,56.0451249 41.5135135,56.1318708 41.2540541,55.871633 L41.1675676,55.784887 C40.9945946,55.5246492 40.9945946,55.2644113 40.9945946,55.0041735 L40.9945946,50.7536222 C40.9081081,50.3198924 41.1675676,49.8861627 41.6,49.7994167 L43.0702703,49.7994167 C43.6756757,49.7994167 44.2810811,49.9729086 44.8,50.3198924 C45.2324324,50.6668762 45.4054054,51.1873519 45.4054054,51.7078276 C45.4054054,52.1415573 45.3189189,52.4885411 44.972973,52.8355249 C44.7135135,53.1825086 44.2810811,53.3560005 43.9351351,53.4427465 L45.0594595,54.6571897 C45.1459459,54.8306816 45.3189189,54.9174276 45.4054054,55.0909194 C45.4918919,55.1776654 45.4918919,55.3511573 45.4918919,55.4379032 C45.4918919,55.6113951 45.4054054,55.784887 45.3189189,55.871633 C45.2324324,55.9583789 45.0594595,56.0451249 44.8864865,56.0451249 C44.8,56.0451249 44.627027,56.0451249 44.5405405,55.9583789 C44.3675676,55.871633 44.2810811,55.6981411 44.1081081,55.5246492 L42.3783784,53.4427465 L42.3783784,53.4427465 Z M42.3783784,52.4885411 L43.0702703,52.4885411 C43.3297297,52.4885411 43.5027027,52.4017951 43.7621622,52.3150492 C43.9351351,52.1415573 44.0216216,51.9680654 44.0216216,51.7078276 C44.0216216,51.5343357 43.9351351,51.2740978 43.7621622,51.1873519 C43.5891892,51.01386 43.3297297,51.01386 43.0702703,51.01386 L42.3783784,51.01386 L42.3783784,52.4885411 L42.3783784,52.4885411 Z M51.9783784,54.9174276 C51.9783784,55.1776654 51.9783784,55.4379032 51.8054054,55.6981411 C51.5459459,55.9583789 51.1135135,56.0451249 50.8540541,55.784887 L50.7675676,55.6981411 C50.5945946,55.4379032 50.5945946,55.1776654 50.5945946,54.9174276 L50.5945946,50.5801303 C50.5945946,50.3198924 50.5945946,50.0596546 50.7675676,49.7994167 C51.027027,49.5391789 51.4594595,49.452433 51.7189189,49.7126708 L51.8054054,49.7994167 C51.9783784,50.0596546 51.9783784,50.3198924 51.9783784,50.5801303 L51.9783784,54.9174276 L51.9783784,54.9174276 Z M53.2756757,54.9174276 L53.2756757,52.1415573 C53.2756757,51.8813194 53.2756757,51.6210816 53.4486486,51.3608438 C53.5351351,51.1873519 53.7945946,51.1006059 53.9675676,51.1006059 C54.0540541,51.1006059 54.227027,51.1006059 54.3135135,51.1873519 C54.4,51.2740978 54.572973,51.3608438 54.572973,51.5343357 C54.7459459,51.3608438 54.9189189,51.2740978 55.0918919,51.1873519 C55.3513514,51.1006059 55.5243243,51.1006059 55.7837838,51.1006059 C56.2162162,51.1006059 56.7351351,51.2740978 56.9945946,51.5343357 C57.2540541,51.8813194 57.427027,52.3150492 57.427027,52.8355249 L57.427027,54.8306816 C57.427027,55.0909194 57.3405405,55.3511573 57.2540541,55.6113951 C56.9945946,55.871633 56.5621622,55.9583789 56.3027027,55.6981411 L56.2162162,55.6113951 C56.1297297,55.3511573 56.0432432,55.0909194 56.0432432,54.8306816 L56.0432432,53.2692546 C56.0432432,53.0090167 56.0432432,52.662033 55.8702703,52.4885411 C55.6972973,52.3150492 55.5243243,52.2283032 55.2648649,52.2283032 C55.0918919,52.2283032 54.8324324,52.3150492 54.7459459,52.4885411 C54.572973,52.7487789 54.572973,53.0090167 54.572973,53.2692546 L54.572973,54.8306816 C54.572973,55.0909194 54.4864865,55.3511573 54.4,55.6113951 C54.1405405,55.871633 53.7081081,55.9583789 53.4486486,55.6981411 L53.3621622,55.6113951 C53.2756757,55.4379032 53.1891892,55.1776654 53.2756757,54.9174276 Z M59.0702703,52.4885411 C58.8108108,52.4885411 58.6378378,52.4885411 58.4648649,52.3150492 C58.2918919,52.2283032 58.2918919,52.0548113 58.2918919,51.8813194 C58.2918919,51.7078276 58.3783784,51.5343357 58.4648649,51.4475897 C58.6378378,51.3608438 58.8972973,51.2740978 59.0702703,51.2740978 L59.0702703,50.6668762 C59.0702703,50.4066384 59.1567568,50.1464005 59.2432432,49.8861627 C59.3297297,49.7126708 59.5891892,49.6259249 59.7621622,49.6259249 C59.9351351,49.6259249 60.1945946,49.7126708 60.2810811,49.8861627 C60.3675676,50.1464005 60.4540541,50.4066384 60.4540541,50.6668762 L60.4540541,51.2740978 L60.5405405,51.2740978 C60.8,51.2740978 60.972973,51.3608438 61.1459459,51.4475897 C61.3189189,51.5343357 61.4054054,51.7078276 61.4054054,51.8813194 C61.4054054,52.0548113 61.3189189,52.2283032 61.2324324,52.3150492 C61.0594595,52.4017951 60.8,52.4885411 60.5405405,52.4885411 L60.3675676,52.4885411 L60.3675676,54.9174276 C60.3675676,55.1776654 60.3675676,55.4379032 60.1945946,55.6981411 C60.1081081,55.871633 59.8486486,55.9583789 59.6756757,55.9583789 C59.5027027,55.9583789 59.2432432,55.871633 59.1567568,55.6981411 C59.0702703,55.4379032 58.9837838,55.1776654 58.9837838,54.9174276 L58.9837838,52.4885411 L59.0702703,52.4885411 Z M63.2216216,53.9632222 C63.2216216,54.22346 63.3945946,54.3969519 63.5675676,54.5704438 C63.7405405,54.7439357 64,54.8306816 64.2594595,54.7439357 C64.5189189,54.7439357 64.8648649,54.6571897 65.1243243,54.4836978 C65.2972973,54.3969519 65.4702703,54.3102059 65.7297297,54.22346 C65.9027027,54.22346 65.9891892,54.3102059 66.0756757,54.3969519 C66.1621622,54.4836978 66.2486486,54.6571897 66.2486486,54.7439357 C66.2486486,55.0909194 65.9891892,55.4379032 65.6432432,55.5246492 C65.2108108,55.784887 64.6918919,55.871633 64.172973,55.871633 C63.5675676,55.871633 62.9621622,55.6113951 62.5297297,55.1776654 C62.0972973,54.7439357 61.8378378,54.0499681 61.8378378,53.4427465 C61.8378378,52.8355249 62.0972973,52.1415573 62.5297297,51.7078276 C62.9621622,51.2740978 63.4810811,51.01386 64.0864865,51.01386 C64.6918919,51.01386 65.2972973,51.2740978 65.6432432,51.7078276 C66.0756757,52.1415573 66.3351351,52.7487789 66.2486486,53.2692546 C66.2486486,53.4427465 66.2486486,53.6162384 66.0756757,53.7029843 C65.9027027,53.7897303 65.7297297,53.8764762 65.5567568,53.7897303 L63.2216216,53.9632222 L63.2216216,53.9632222 Z M63.2216216,53.0957627 L64.9513514,53.0957627 C64.9513514,52.8355249 64.8648649,52.662033 64.6918919,52.4885411 C64.3459459,52.1415573 63.827027,52.1415573 63.4810811,52.4885411 C63.3081081,52.662033 63.2216216,52.8355249 63.2216216,53.0957627 Z M67.372973,54.9174276 L67.372973,52.1415573 C67.372973,51.8813194 67.4594595,51.6210816 67.5459459,51.3608438 C67.6324324,51.1873519 67.8054054,51.1006059 68.0648649,51.1006059 C68.1513514,51.1006059 68.3243243,51.1006059 68.4108108,51.1873519 C68.4972973,51.2740978 68.6702703,51.3608438 68.6702703,51.5343357 C68.7567568,51.3608438 68.9297297,51.2740978 69.1027027,51.1873519 L69.6216216,51.1873519 C69.7945946,51.1873519 69.9675676,51.2740978 70.1405405,51.3608438 C70.3135135,51.4475897 70.3135135,51.6210816 70.3135135,51.7945735 C70.227027,52.1415573 69.9675676,52.4017951 69.5351351,52.4885411 L69.1027027,52.662033 C68.9297297,52.7487789 68.8432432,52.8355249 68.7567568,52.9222708 C68.6702703,53.0957627 68.6702703,53.2692546 68.6702703,53.4427465 L68.6702703,54.8306816 C68.6702703,55.0909194 68.5837838,55.3511573 68.4972973,55.6113951 C68.2378378,55.871633 67.8054054,55.9583789 67.5459459,55.6981411 C67.372973,55.4379032 67.372973,55.1776654 67.372973,54.9174276 L67.372973,54.9174276 Z M71.0918919,54.9174276 L71.0918919,52.1415573 C71.0918919,51.8813194 71.0918919,51.6210816 71.2648649,51.3608438 C71.3513514,51.1873519 71.6108108,51.1006059 71.7837838,51.1006059 C71.8702703,51.1006059 72.0432432,51.1006059 72.1297297,51.1873519 C72.2162162,51.2740978 72.3891892,51.3608438 72.3891892,51.5343357 C72.5621622,51.3608438 72.7351351,51.2740978 72.9081081,51.1873519 L73.6,51.1873519 C74.0324324,51.1873519 74.5513514,51.3608438 74.8108108,51.6210816 C75.0702703,51.9680654 75.2432432,52.4017951 75.2432432,52.9222708 L75.2432432,54.9174276 C75.2432432,55.1776654 75.1567568,55.4379032 75.0702703,55.6981411 C74.8108108,55.9583789 74.3783784,56.0451249 74.1189189,55.784887 L74.0324324,55.6981411 C73.9459459,55.4379032 73.8594595,55.1776654 73.8594595,54.9174276 L73.8594595,53.3560005 C73.8594595,53.0957627 73.8594595,52.7487789 73.6864865,52.575287 C73.5135135,52.4017951 73.3405405,52.3150492 73.0810811,52.3150492 C72.9081081,52.3150492 72.6486486,52.4017951 72.5621622,52.575287 C72.3891892,52.8355249 72.3891892,53.0957627 72.3891892,53.3560005 L72.3891892,54.9174276 C72.3891892,55.1776654 72.3027027,55.4379032 72.2162162,55.6981411 C71.9567568,55.9583789 71.5243243,56.0451249 71.2648649,55.784887 L71.1783784,55.6981411 C71.0918919,55.4379032 71.0918919,55.1776654 71.0918919,54.9174276 L71.0918919,54.9174276 Z M79.5675676,55.4379032 C79.3945946,55.6113951 79.2216216,55.6981411 79.0486486,55.871633 C78.8756757,55.9583789 78.6162162,56.0451249 78.4432432,56.0451249 C77.8378378,56.0451249 77.3189189,55.784887 76.972973,55.3511573 C76.5405405,54.8306816 76.3675676,54.22346 76.3675676,53.6162384 C76.3675676,53.0090167 76.5405405,52.4017951 76.972973,51.8813194 C77.3189189,51.4475897 77.9243243,51.1873519 78.4432432,51.1873519 C78.6162162,51.1873519 78.8756757,51.1873519 79.0486486,51.2740978 C79.2216216,51.3608438 79.3945946,51.4475897 79.5675676,51.6210816 C79.6540541,51.4475897 79.7405405,51.3608438 79.827027,51.2740978 C79.9135135,51.1873519 80.0864865,51.1873519 80.172973,51.1873519 C80.3459459,51.1873519 80.6054054,51.2740978 80.6918919,51.4475897 C80.7783784,51.7078276 80.8648649,51.9680654 80.8648649,52.2283032 L80.8648649,55.0041735 C80.8648649,55.2644113 80.8648649,55.5246492 80.6918919,55.784887 C80.6054054,55.9583789 80.3459459,56.0451249 80.172973,56.0451249 C80,56.0451249 79.9135135,56.0451249 79.827027,55.9583789 C79.7405405,55.6981411 79.5675676,55.6113951 79.5675676,55.4379032 L79.5675676,55.4379032 Z M77.7513514,53.5294924 C77.7513514,53.7897303 77.8378378,54.136714 78.0108108,54.3102059 C78.1837838,54.4836978 78.4432432,54.6571897 78.6162162,54.5704438 C78.8756757,54.5704438 79.1351351,54.4836978 79.2216216,54.22346 C79.3945946,53.9632222 79.4810811,53.7029843 79.4810811,53.4427465 C79.4810811,53.1825086 79.3945946,52.8355249 79.2216216,52.662033 C79.0486486,52.4885411 78.8756757,52.3150492 78.6162162,52.4017951 C78.3567568,52.4017951 78.0972973,52.4885411 78.0108108,52.662033 C77.8378378,53.0090167 77.7513514,53.2692546 77.7513514,53.5294924 Z M82.5081081,52.4885411 C82.2486486,52.4885411 82.0756757,52.4885411 81.9027027,52.3150492 C81.7297297,52.2283032 81.7297297,52.0548113 81.7297297,51.8813194 C81.7297297,51.7078276 81.8162162,51.5343357 81.9027027,51.4475897 C82.0756757,51.3608438 82.3351351,51.2740978 82.5081081,51.2740978 L82.5081081,50.6668762 C82.5081081,50.4066384 82.5945946,50.1464005 82.6810811,49.8861627 C82.7675676,49.7126708 83.027027,49.6259249 83.2,49.6259249 C83.372973,49.6259249 83.6324324,49.7126708 83.7189189,49.8861627 C83.8054054,50.1464005 83.8918919,50.4066384 83.8918919,50.6668762 L83.8918919,51.2740978 L83.9783784,51.2740978 C84.2378378,51.2740978 84.4108108,51.3608438 84.5837838,51.4475897 C84.7567568,51.5343357 84.8432432,51.7078276 84.8432432,51.8813194 C84.8432432,52.0548113 84.7567568,52.2283032 84.6702703,52.3150492 C84.4972973,52.4017951 84.2378378,52.4885411 83.9783784,52.4885411 L83.8918919,52.4885411 L83.8918919,54.9174276 C83.8918919,55.1776654 83.8918919,55.4379032 83.7189189,55.6981411 C83.6324324,55.871633 83.372973,55.9583789 83.2,55.9583789 C83.027027,55.9583789 82.7675676,55.871633 82.6810811,55.6981411 C82.5945946,55.4379032 82.5081081,55.1776654 82.5081081,54.9174276 L82.5081081,52.4885411 L82.5081081,52.4885411 Z M85.5351351,50.0596546 C85.5351351,49.6259249 85.8810811,49.2789411 86.3135135,49.2789411 C86.4864865,49.2789411 86.7459459,49.365687 86.8324324,49.5391789 C87.1783784,49.8861627 87.1783784,50.3198924 86.8324324,50.6668762 C86.6594595,50.8403681 86.4864865,50.927114 86.3135135,50.927114 C85.8810811,50.8403681 85.5351351,50.4933843 85.5351351,50.0596546 L85.5351351,50.0596546 Z M86.9189189,54.9174276 C86.9189189,55.1776654 86.9189189,55.4379032 86.7459459,55.6981411 C86.6594595,55.871633 86.4,55.9583789 86.227027,55.9583789 C86.0540541,55.9583789 85.7945946,55.871633 85.7081081,55.6981411 C85.6216216,55.4379032 85.5351351,55.1776654 85.5351351,54.9174276 L85.5351351,52.1415573 C85.5351351,51.8813194 85.5351351,51.6210816 85.6216216,51.3608438 C85.7081081,51.1873519 85.9675676,51.1006059 86.1405405,51.1006059 C86.3135135,51.1006059 86.572973,51.1873519 86.6594595,51.3608438 C86.7459459,51.6210816 86.8324324,51.8813194 86.8324324,52.1415573 L86.9189189,54.9174276 L86.9189189,54.9174276 Z M88.1297297,53.5294924 C88.1297297,52.9222708 88.3027027,52.2283032 88.8216216,51.7945735 C89.772973,50.8403681 91.2432432,50.8403681 92.1081081,51.7945735 C92.972973,52.8355249 92.972973,54.22346 92.1081081,55.2644113 C91.1567568,56.2186167 89.6864865,56.2186167 88.8216216,55.2644113 C88.3027027,54.8306816 88.0432432,54.22346 88.1297297,53.5294924 Z M89.5135135,53.5294924 C89.5135135,53.8764762 89.6,54.136714 89.772973,54.3969519 C90.1189189,54.7439357 90.6378378,54.8306816 90.9837838,54.4836978 L91.0702703,54.3969519 C91.2432432,54.136714 91.3297297,53.8764762 91.3297297,53.5294924 C91.3297297,53.1825086 91.2432432,52.9222708 91.0702703,52.662033 C90.8108108,52.3150492 90.2918919,52.2283032 89.9459459,52.4885411 C89.8594595,52.4885411 89.8594595,52.575287 89.772973,52.662033 C89.6,52.9222708 89.5135135,53.2692546 89.5135135,53.5294924 Z M93.6648649,54.9174276 L93.6648649,52.1415573 C93.6648649,51.8813194 93.6648649,51.6210816 93.8378378,51.3608438 C93.9243243,51.1873519 94.1837838,51.1006059 94.3567568,51.1006059 C94.4432432,51.1006059 94.6162162,51.1006059 94.7027027,51.1873519 C94.7891892,51.2740978 94.9621622,51.3608438 94.9621622,51.5343357 C95.1351351,51.3608438 95.3081081,51.2740978 95.4810811,51.1873519 C95.7405405,51.1006059 95.9135135,51.1006059 96.172973,51.1006059 C96.6054054,51.1006059 97.1243243,51.2740978 97.3837838,51.5343357 C97.6432432,51.8813194 97.8162162,52.4017951 97.7297297,52.8355249 L97.7297297,54.8306816 C97.7297297,55.0909194 97.6432432,55.3511573 97.5567568,55.6113951 C97.2972973,55.871633 96.8648649,55.9583789 96.6054054,55.6981411 L96.5189189,55.6113951 C96.4324324,55.3511573 96.3459459,55.0909194 96.3459459,54.8306816 L96.3459459,53.2692546 C96.3459459,53.0090167 96.3459459,52.662033 96.172973,52.4885411 C96,52.3150492 95.827027,52.2283032 95.5675676,52.2283032 C95.3945946,52.2283032 95.1351351,52.3150492 95.0486486,52.4885411 C94.8756757,52.7487789 94.8756757,53.0090167 94.8756757,53.2692546 L94.8756757,54.8306816 C94.8756757,55.0909194 94.7891892,55.3511573 94.7027027,55.6113951 C94.6162162,55.784887 94.3567568,55.871633 94.1837838,55.871633 C94.0108108,55.871633 93.7513514,55.784887 93.6648649,55.6113951 L93.6648649,54.9174276 L93.6648649,54.9174276 Z M102.140541,55.4379032 C101.967568,55.6113951 101.794595,55.6981411 101.621622,55.871633 C101.448649,55.9583789 101.189189,56.0451249 101.016216,56.0451249 C100.410811,56.0451249 99.8918919,55.784887 99.5459459,55.3511573 C99.1135135,54.8306816 98.9405405,54.22346 98.9405405,53.6162384 C98.9405405,53.0090167 99.1135135,52.4017951 99.5459459,51.8813194 C99.8918919,51.4475897 100.497297,51.1873519 101.016216,51.1873519 C101.189189,51.1873519 101.448649,51.1873519 101.621622,51.2740978 C101.794595,51.3608438 101.967568,51.4475897 102.140541,51.6210816 C102.227027,51.4475897 102.313514,51.3608438 102.4,51.2740978 C102.486486,51.1873519 102.572973,51.1873519 102.745946,51.1873519 C102.918919,51.1873519 103.178378,51.2740978 103.264865,51.4475897 C103.351351,51.7078276 103.437838,51.9680654 103.437838,52.2283032 L103.437838,55.0041735 C103.437838,55.2644113 103.437838,55.5246492 103.264865,55.784887 C103.178378,55.9583789 102.918919,56.0451249 102.745946,56.0451249 C102.572973,56.0451249 102.486486,56.0451249 102.4,55.9583789 C102.313514,55.6981411 102.227027,55.6113951 102.140541,55.4379032 L102.140541,55.4379032 Z M100.324324,53.5294924 C100.324324,53.7897303 100.410811,54.136714 100.583784,54.3102059 C100.756757,54.4836978 101.016216,54.6571897 101.189189,54.5704438 C101.448649,54.5704438 101.708108,54.4836978 101.794595,54.22346 C101.967568,53.9632222 102.054054,53.7029843 102.054054,53.4427465 C102.054054,53.1825086 101.967568,52.8355249 101.794595,52.662033 C101.621622,52.4885411 101.448649,52.3150492 101.189189,52.4017951 C100.92973,52.4017951 100.67027,52.4885411 100.583784,52.662033 C100.410811,53.0090167 100.324324,53.2692546 100.324324,53.5294924 Z M104.821622,50.2331465 C104.821622,49.9729086 104.821622,49.7126708 104.994595,49.452433 C105.081081,49.2789411 105.340541,49.1921951 105.513514,49.1921951 C105.686486,49.1921951 105.945946,49.2789411 106.032432,49.452433 C106.118919,49.7126708 106.205405,49.9729086 106.205405,50.2331465 L106.205405,54.9174276 C106.205405,55.1776654 106.205405,55.4379032 106.032432,55.6981411 C105.945946,55.871633 105.686486,55.9583789 105.513514,55.9583789 C105.340541,55.9583789 105.081081,55.871633 104.994595,55.6981411 C104.908108,55.4379032 104.821622,55.1776654 104.821622,54.9174276 L104.821622,50.2331465 L104.821622,50.2331465 Z M111.913514,54.6571897 L111.740541,55.2644113 C111.654054,55.4379032 111.567568,55.6113951 111.481081,55.6981411 C111.394595,55.784887 111.221622,55.871633 111.048649,55.871633 C110.875676,55.871633 110.702703,55.784887 110.616216,55.6981411 C110.52973,55.6113951 110.443243,55.3511573 110.443243,55.1776654 L110.443243,55.0041735 C110.443243,54.9174276 110.443243,54.9174276 110.52973,54.8306816 L112.086486,50.4933843 C112.172973,50.2331465 112.345946,49.9729086 112.518919,49.7994167 C112.691892,49.6259249 112.951351,49.5391789 113.124324,49.6259249 C113.383784,49.6259249 113.556757,49.7126708 113.72973,49.7994167 C113.902703,49.9729086 114.075676,50.1464005 114.162162,50.4066384 L115.718919,54.8306816 C115.718919,54.9174276 115.805405,55.0041735 115.805405,55.0909194 L115.805405,55.2644113 C115.805405,55.4379032 115.718919,55.6113951 115.632432,55.784887 C115.459459,55.871633 115.286486,55.9583789 115.113514,55.9583789 C114.940541,55.9583789 114.767568,55.871633 114.681081,55.784887 C114.508108,55.6113951 114.421622,55.4379032 114.421622,55.2644113 L114.248649,54.6571897 L111.913514,54.6571897 L111.913514,54.6571897 Z M112.345946,53.3560005 L113.816216,53.3560005 L113.124324,51.1006059 L112.345946,53.3560005 L112.345946,53.3560005 Z M120.908108,53.4427465 L120.389189,53.4427465 C120.12973,53.4427465 119.87027,53.4427465 119.610811,53.2692546 C119.351351,53.0957627 119.264865,52.662033 119.524324,52.4017951 L119.610811,52.3150492 C119.87027,52.2283032 120.12973,52.1415573 120.389189,52.1415573 L121.427027,52.1415573 C121.686486,52.1415573 121.945946,52.2283032 122.205405,52.3150492 C122.378378,52.4885411 122.464865,52.7487789 122.464865,53.0090167 C122.464865,53.7897303 122.205405,54.5704438 121.686486,55.1776654 C121.167568,55.6981411 120.389189,56.0451249 119.610811,55.9583789 C118.832432,55.9583789 118.054054,55.6981411 117.535135,55.0909194 C116.92973,54.4836978 116.67027,53.6162384 116.67027,52.7487789 C116.67027,51.8813194 116.92973,51.01386 117.535135,50.4066384 C118.140541,49.7994167 118.918919,49.452433 119.783784,49.5391789 C120.302703,49.5391789 120.908108,49.6259249 121.427027,49.9729086 C121.772973,50.1464005 122.032432,50.4933843 122.118919,50.8403681 C122.118919,51.01386 122.032432,51.1873519 121.945946,51.2740978 C121.859459,51.3608438 121.686486,51.4475897 121.513514,51.4475897 C121.254054,51.3608438 120.994595,51.2740978 120.821622,51.1873519 C120.475676,51.01386 120.12973,50.927114 119.783784,50.927114 C119.351351,50.927114 118.918919,51.1006059 118.659459,51.4475897 C118.4,51.8813194 118.227027,52.3150492 118.227027,52.8355249 C118.227027,53.3560005 118.313514,53.8764762 118.659459,54.22346 C118.918919,54.5704438 119.351351,54.7439357 119.783784,54.7439357 C120.12973,54.7439357 120.389189,54.6571897 120.648649,54.3969519 C120.735135,54.136714 120.908108,53.7897303 120.908108,53.4427465 L120.908108,53.4427465 Z" id="Shape"></path>
                </g>
            </g>
        </g>
    </g>
</svg>