<?xml version="1.0" encoding="UTF-8"?>
<svg width="42px" height="56px" viewBox="0 0 42 56" version="1.1" xmlns="http://www.w3.org/2000/svg" xmlns:xlink="http://www.w3.org/1999/xlink">
    <title>31F49E88-7FE2-444C-8F66-7F2C47DCA157@3x</title>
    <g id="Preorder" stroke="none" stroke-width="1" fill="none" fill-rule="evenodd">
        <g id="Pricat" transform="translate(-454.000000, -286.000000)" fill="#2F3544" fill-rule="nonzero">
            <g id="Pricat-Copy" transform="translate(395.000000, 262.000000)">
                <g id="file-earmark-ruled" transform="translate(59.000000, 24.000000)">
                    <path d="M42,49 L42,15.75 L26.25,0 L7,0 C3.13400675,0 0,3.13400675 0,7 L0,49 C0,52.8659932 3.13400675,56 7,56 L35,56 C38.8659932,56 42,52.8659932 42,49 Z M26.25,10.5 C26.25,13.3994949 28.6005051,15.75 31.5,15.75 L38.5,15.75 L38.5,31.5 L3.5,31.5 L3.5,7 C3.5,5.06700338 5.06700338,3.5 7,3.5 L26.25,3.5 L26.25,10.5 Z M3.5,42 L3.5,35 L10.5,35 L10.5,42 L3.5,42 Z M3.5,45.5 L10.5,45.5 L10.5,52.5 L7,52.5 C5.06700338,52.5 3.5,50.9329966 3.5,49 L3.5,45.5 Z M14,52.5 L14,45.5 L38.5,45.5 L38.5,49 C38.5,50.9329966 36.9329966,52.5 35,52.5 L14,52.5 Z M38.5,42 L14,42 L14,35 L38.5,35 L38.5,42 Z" id="Shape"></path>
                </g>
            </g>
        </g>
    </g>
</svg>