<?xml version="1.0" encoding="UTF-8"?>
<svg width="24px" height="24px" viewBox="0 0 24 24" version="1.1" xmlns="http://www.w3.org/2000/svg" xmlns:xlink="http://www.w3.org/1999/xlink">
    <title>D960F1EA-C4C5-4737-AC12-740A36790C7C@3x</title>
    <g id="Page-1" stroke="none" stroke-width="1" fill="none" fill-rule="evenodd">
        <g id="Home" transform="translate(-284.000000, -2004.000000)">
            <g id="Footer" transform="translate(-1.000000, 1871.000000)">
                <g id="Group-3" transform="translate(99.000000, 131.000000)">
                    <g id="icon" transform="translate(186.000000, 2.000000)">
                        <rect id="Rectangle" x="0" y="0" width="24" height="24"></rect>
                        <g id="flickr" transform="translate(2.000000, 2.000000)" fill-rule="nonzero">
                            <path d="M0,10 C0,4.47716667 4.47716667,0 10,0 C15.5228333,0 20,4.47716667 20,10 C20,15.5228333 15.5228333,20 10,20 C4.47716667,20 0,15.5228333 0,10 Z" id="Path" fill="#FFFFFF"></path>
                            <path d="M15.9564167,9.91608333 C15.9564167,11.3425833 14.7788333,12.4995 13.3235833,12.4995 C11.866875,12.4995 10.688625,11.3425833 10.688625,9.91608333 C10.688625,8.49025 11.866875,7.33333333 13.3235833,7.33333333 C14.7788333,7.33333333 15.9564167,8.49025 15.9564167,9.91608333 Z" id="Path" fill="#2F3544"></path>
                            <path d="M9.26708333,9.91608333 C9.26708333,11.3425833 8.08883333,12.4995 6.632125,12.4995 C5.17758333,12.4995 4,11.3425833 4,9.91608333 C4,8.49025 5.17758333,7.33333333 6.632125,7.33333333 C8.08883333,7.33333333 9.26708333,8.49025 9.26708333,9.91608333 Z" id="Path" fill="#2F3544"></path>
                        </g>
                    </g>
                </g>
            </g>
        </g>
    </g>
</svg>