<?xml version="1.0" encoding="UTF-8"?>
<svg viewBox="0 0 24 24" version="1.1" xmlns="http://www.w3.org/2000/svg" xmlns:xlink="http://www.w3.org/1999/xlink">
    <title>EAA5F7A5-5DC5-4F68-BFF9-205773D14CD0@3x</title>
    <g id="Page-1" stroke="none" stroke-width="1" fill="none" fill-rule="evenodd">
        <g id="Home" transform="translate(-1035.000000, -63.000000)">
            <g id="Header" transform="translate(0.000000, 42.000000)">
                <g id="icon/heart" transform="translate(1035.000000, 21.000000)">
                    <rect id="Rectangle" x="0" y="0" width="24" height="24"></rect>
                    <g id="heart" transform="translate(3.000000, 4.000000)" fill="#2F3544" fill-rule="nonzero">
                        <path d="M9,3.0915 L8.193375,2.262375 C6.3,0.316125 2.82825,0.98775 1.575,3.434625 C0.986625,4.5855 0.853875,6.247125 1.92825,8.36775 C2.96325,10.409625 5.1165,12.855375 9,15.519375 C12.8835,12.855375 15.035625,10.409625 16.07175,8.36775 C17.146125,6.246 17.0145,4.5855 16.425,3.434625 C15.17175,0.98775 11.7,0.315 9.806625,2.26125 L9,3.0915 Z M9,16.875 C-8.249625,5.4765 3.688875,-3.42 8.802,1.285875 C8.8695,1.34775 8.935875,1.411875 9,1.47825 C9.06347375,1.4119354 9.12952453,1.34813635 9.198,1.287 C14.31,-3.42225 26.249625,5.475375 9,16.875 Z" id="Shape"></path>
                    </g>
                </g>
            </g>
        </g>
    </g>
</svg>