<?xml version="1.0" encoding="UTF-8"?>
<svg width="136px" height="50px" viewBox="0 0 136 50" version="1.1" xmlns="http://www.w3.org/2000/svg" xmlns:xlink="http://www.w3.org/1999/xlink">
    <title>D3C48B0B-751C-4925-A489-0BBE08E7CD15@3x</title>
    <g id="Page-1" stroke="none" stroke-width="1" fill="none" fill-rule="evenodd">
        <g id="Login" transform="translate(-652.000000, -53.000000)" fill="#CC1618" fill-rule="nonzero">
            <g id="fj" transform="translate(652.000000, 53.000000)">
                <g id="Group" transform="translate(47.309999, 2.850000)">
                    <path d="M13.6229998,36.9359995 C15.9029998,35.9099995 17.3279998,33.6299996 17.2709998,31.1219996 C17.2709998,26.6189997 13.6229998,24.0539997 9.29099988,24.0539997 L3.36299996,24.0539997 C3.36299996,24.0539997 3.36299996,24.0539997 3.30599996,24.0539997 C1.53899998,24.0539997 0.113999999,25.4789997 0.113999999,27.2459997 L0.113999999,42.1799995 C0.113999999,43.9469994 1.53899998,45.4289994 3.36299996,45.4289994 C5.12999994,45.4289994 6.61199992,44.0039994 6.61199992,42.1799995 L6.61199992,38.0189995 L10.8299999,44.0039994 C11.4569999,44.9159994 12.4259998,45.4289994 13.5089998,45.4289994 C14.2499998,45.4289994 14.9339998,45.2009994 15.5039998,44.8019994 C16.8719998,43.7189995 17.1569998,41.7239995 16.0739998,40.3559995 L13.6229998,36.9359995 Z M10.8299999,31.6349996 C10.7159999,32.4899996 9.91799988,33.0599996 9.06299989,32.9459996 L6.55499992,32.9459996 L6.55499992,29.8679996 L9.06299989,29.8679996 C9.17699988,29.8679996 9.34799988,29.8679996 9.46199988,29.8679996 C10.3739999,29.9819996 10.9439999,30.7799996 10.8299999,31.6349996 Z" id="Shape"></path>
                    <path d="M30.8939996,26.6189997 C30.3239996,25.0229997 28.8419996,23.9969997 27.1889997,23.9969997 C25.5359997,23.9399997 23.9969997,25.0229997 23.4839997,26.6189997 L17.3849998,40.7549995 C17.1569998,41.2109995 17.0429998,41.7239995 17.0429998,42.2369995 C17.0999998,44.0039994 18.5249998,45.4289994 20.3489997,45.4289994 C21.6599997,45.4289994 22.8569997,44.6309994 23.3129997,43.3199995 L23.7119997,42.1229995 L30.6089996,42.1229995 L31.0649996,43.3769995 C31.5209996,44.6309994 32.7179996,45.4289994 34.0859996,45.4289994 C34.5419996,45.4289994 34.9979996,45.3149994 35.3969996,45.1439994 C36.9929995,44.4029994 37.7339995,42.5219995 36.9929995,40.8689995 L30.8939996,26.6189997 Z M25.5929997,36.9359995 L27.1319997,32.4329996 L28.8419996,36.9359995 L25.5929997,36.9359995 Z" id="Shape"></path>
                    <path d="M50.2739994,23.9399997 C48.9059994,23.8829997 47.6519994,24.7379997 47.1959994,26.0489997 L43.6049995,35.5679996 L39.9569995,26.0489997 C39.5009995,24.7379997 38.2469995,23.8829997 36.8789995,23.9399997 C34.5419996,23.9399997 33.0599996,26.3339997 34.0289996,28.6709996 L39.7289995,42.6929995 C40.1279995,43.7759995 41.0399995,44.6309994 42.1229995,45.0869994 C44.2319994,45.8849994 46.6259994,44.8589994 47.4239994,42.6929995 L53.1239993,28.6709996 L53.0669993,28.7279996 C53.2949993,28.2719996 53.4659993,27.7589997 53.4659993,27.2459997 C53.4659993,25.4219997 52.0979993,23.9399997 50.2739994,23.9399997 Z" id="Path"></path>
                    <path d="M65.8919992,39.2159995 L60.4199992,39.2159995 L60.4199992,37.2209995 L64.8659992,37.2209995 C64.8659992,37.2209995 64.8659992,37.2209995 64.8659992,37.2209995 C66.3479992,37.2209995 67.5449992,36.0239995 67.5449992,34.5419996 C67.5449992,33.0599996 66.3479992,31.8629996 64.8659992,31.8629996 L60.4199992,31.8629996 L60.4199992,30.0959996 L65.8919992,30.0959996 C67.4309992,29.9819996 68.6849991,28.7849996 68.7989991,27.1889997 C68.9129991,25.4789997 67.6019992,24.0539997 65.8919992,23.9399997 L57.1709993,23.9399997 C57.1709993,23.9399997 57.1709993,23.9399997 57.1709993,23.9399997 C55.4039993,23.9399997 53.9789993,25.3649997 53.9789993,27.1319997 L53.9789993,42.0659995 C53.9789993,42.0659995 53.9789993,42.0659995 53.9789993,42.1229995 C53.9789993,43.8899994 55.4039993,45.3149994 57.1709993,45.3149994 L65.8919992,45.3149994 C67.6019992,45.3149994 68.9699991,43.9469994 68.9699991,42.2369995 C68.9129991,40.6409995 67.5449992,39.2159995 65.8919992,39.2159995 Z" id="Path"></path>
                    <path d="M3.36299996,22.9139997 C5.12999994,22.9139997 6.61199992,21.4889997 6.61199992,19.6649998 L6.61199992,15.2189998 L11.2289999,15.2189998 C12.7679998,15.2189998 14.0219998,13.9649998 14.0219998,12.4259998 C14.0219998,10.8869999 12.7679998,9.63299988 11.2289999,9.63299988 L6.61199992,9.63299988 L6.61199992,7.6379999 L12.0839998,7.6379999 C12.1979998,7.6379999 12.3119998,7.6379999 12.4259998,7.6379999 C14.1359998,7.52399991 15.3899998,6.09899992 15.3329998,4.38899994 C15.2189998,2.67899997 13.7939998,1.42499998 12.0839998,1.48199998 L3.36299996,1.48199998 C3.36299996,1.48199998 3.36299996,1.48199998 3.30599996,1.48199998 C1.53899998,1.48199998 0.113999999,2.90699996 0.113999999,4.67399994 L0.113999999,19.6079998 L0.113999999,19.6079998 C0.113999999,21.4319997 1.59599998,22.9139997 3.36299996,22.9139997 Z" id="Path"></path>
                    <path d="M13.5089998,16.3589998 C12.9959998,16.0169998 12.3689998,15.8459998 11.7419999,15.8459998 C10.0889999,15.8459998 8.72099989,17.2139998 8.72099989,18.9239998 C8.72099989,19.7789998 9.06299989,20.5769997 9.68999988,21.1469997 C10.8299999,22.3439997 12.8249998,23.1419997 15.7889998,23.1419997 C20.8049997,23.1419997 23.5409997,19.6649998 23.5409997,15.6179998 L23.5409997,4.73099994 C23.5409997,4.73099994 23.5409997,4.73099994 23.5409997,4.67399994 C23.5409997,2.90699996 22.1159997,1.48199998 20.3489997,1.48199998 C20.3489997,1.48199998 20.3489997,1.48199998 20.3489997,1.48199998 C18.5819998,1.48199998 17.0999998,2.90699996 17.0999998,4.67399994 L17.0999998,15.5039998 C17.0999998,15.5609998 17.0999998,15.6749998 17.0999998,15.7319998 C17.0429998,16.4729998 16.4159998,17.0999998 15.6749998,17.0429998 C14.8769998,17.0429998 14.1359998,16.8149998 13.5089998,16.3589998 L13.5089998,16.3589998 Z" id="Path"></path>
                    <path d="M26.9039997,22.9139997 C28.2149996,22.9139997 29.4119996,22.1159997 29.8679996,20.8049997 L30.2669996,19.6079998 L37.1069995,19.6079998 L37.5629995,20.8619997 C38.0189995,22.1159997 39.2159995,22.9139997 40.5839995,22.9139997 C41.0399995,22.9139997 41.4959995,22.7999997 41.8949995,22.6289997 C43.4909995,21.8879997 44.2319994,20.0069997 43.4909995,18.3539998 L37.4489995,4.10399995 C36.8789995,2.50799997 35.3969996,1.48199998 33.7439996,1.48199998 C32.0909996,1.42499998 30.5519996,2.50799997 30.0389996,4.10399995 L23.9399997,18.2399998 L23.8829997,18.2399998 C23.6549997,18.6959998 23.5409997,19.2659998 23.5409997,19.7789998 C23.5979997,21.5459997 25.1369997,22.9709997 26.9039997,22.9139997 Z M33.6869996,9.91799988 L35.2829996,14.4209998 L32.0339996,14.4209998 L33.6869996,9.91799988 Z" id="Shape"></path>
                    <path d="M47.4809994,22.9139997 L55.7459993,22.9139997 C55.8599993,22.9139997 55.9739993,22.9139997 56.0879993,22.9139997 C57.7979993,22.7999997 59.0519993,21.3749997 58.9949993,19.6649998 C58.8809993,17.9549998 57.4559993,16.7009998 55.7459993,16.7579998 L50.7299994,16.7579998 L50.7299994,4.73099994 C50.7299994,2.96399996 49.3049994,1.48199998 47.4809994,1.48199998 C45.7139994,1.48199998 44.2319994,2.90699996 44.2319994,4.73099994 L44.2319994,19.6649998 C44.2319994,19.6649998 44.2319994,19.6649998 44.2319994,19.7219998 C44.2889994,21.4889997 45.7139994,22.9139997 47.4809994,22.9139997 Z" id="Path"></path>
                    <path d="M59.3369993,19.6649998 C59.3369993,21.4319997 60.7619992,22.8569997 62.5289992,22.8569997 L70.7939991,22.8569997 C70.9079991,22.8569997 71.0219991,22.8569997 71.1359991,22.8569997 C72.8459991,22.7429997 74.0999991,21.3179997 74.0429991,19.6079998 C73.9289991,17.8979998 72.5039991,16.6439998 70.7939991,16.7009998 L65.7779992,16.7009998 L65.7779992,4.73099994 C65.7779992,2.96399996 64.3529992,1.48199998 62.5289992,1.48199998 C60.7049992,1.48199998 59.2799993,2.90699996 59.2799993,4.73099994 L59.3369993,19.6649998 L59.3369993,19.6649998 C59.3369993,19.6649998 59.3369993,19.6649998 59.3369993,19.6649998 Z" id="Path"></path>
                    <path d="M84.1319989,23.8259997 C82.364999,23.9399997 80.996999,25.4219997 81.110999,27.1889997 L81.110999,33.7439996 L75.6389991,25.6499997 C75.0689991,24.6239997 73.9859991,23.9969997 72.7889991,23.9969997 C72.7889991,23.9969997 72.7889991,23.9969997 72.7319991,23.9969997 C70.9649991,23.9969997 69.5399991,25.4219997 69.5399991,27.1889997 L69.5399991,42.0659995 C69.6539991,43.7189995 70.9649991,45.0299994 72.5609991,45.0869994 C74.3279991,45.2009994 75.866999,43.8329994 75.923999,42.0659995 L75.923999,35.5109996 L81.395999,43.7759995 C82.022999,44.7449994 83.105999,45.3719994 84.2459989,45.3719994 C84.2459989,45.3719994 84.3029989,45.3719994 84.3029989,45.3719994 C86.0699989,45.3149994 87.4379989,43.8899994 87.3809989,42.1799995 L87.3809989,27.2459997 L87.4379989,27.1889997 C87.4379989,27.0749997 87.4379989,26.9609997 87.4379989,26.8469997 C87.4379989,25.0799997 85.8989989,23.7689997 84.1319989,23.8259997 Z" id="Path"></path>
                    <path d="M23.7119997,24.3389997 C23.7119997,25.0799997 23.1419997,25.7069997 22.4009997,25.7069997 C21.6599997,25.7069997 21.0329997,25.1369997 21.0329997,24.3959997 C21.0329997,23.6549997 21.6029997,23.0279997 22.3439997,23.0279997 C22.3439997,23.0279997 22.4009997,23.0279997 22.4009997,23.0279997 C23.0849997,23.0849997 23.6549997,23.6549997 23.6549997,24.3389997 L23.7119997,24.3389997 Z" id="Path"></path>
                    <path d="M27.4739997,1.76699998 C27.4739997,1.02599999 28.0439996,0.398999995 28.7849996,0.398999995 C29.5259996,0.398999995 30.1529996,0.968999988 30.1529996,1.70999998 C30.1529996,2.45099997 29.5829996,3.07799996 28.8419996,3.07799996 C28.8419996,3.07799996 28.8419996,3.07799996 28.8419996,3.07799996 C28.1009996,3.13499996 27.4169997,2.56499997 27.4169997,1.76699998 C27.4169997,1.76699998 27.4169997,1.76699998 27.4169997,1.76699998 L27.4739997,1.76699998 Z" id="Path"></path>
                    <path d="M32.0909996,22.9709997 C32.8319996,22.9709997 33.4019996,23.5409997 33.4019996,24.2819997 C33.4019996,25.0229997 32.8319996,25.5929997 32.0909996,25.5929997 C31.3499996,25.5929997 30.7799996,25.0229997 30.7799996,24.2819997 C30.7799996,23.5979997 31.3499996,23.0279997 32.0339996,22.9709997 L32.0909996,22.9709997 Z" id="Path"></path>
                    <path d="M37.1639995,1.82399998 C37.1639995,1.08299999 37.7339995,0.512999994 38.4749995,0.512999994 C39.2159995,0.512999994 39.7859995,1.08299999 39.7859995,1.82399998 C39.7859995,2.56499997 39.2159995,3.13499996 38.4749995,3.13499996 C38.4749995,3.13499996 38.4749995,3.13499996 38.4749995,3.13499996 C37.7909995,3.13499996 37.2209995,2.56499997 37.1639995,1.82399998 Z" id="Path"></path>
                </g>
                <path d="M23.4269997,3.41999996 C23.3699997,2.45099997 23.2559997,1.36799998 23.1989997,0.170999998 L20.8619997,3.24899996 L20.1779997,3.24899996 C15.6179998,3.19199996 11.1719999,4.27499995 7.12499991,6.38399992 L7.18199991,6.49799992 C9.00599989,5.81399993 11.0009999,5.47199993 12.9389998,5.47199993 C14.8199998,5.47199993 16.7009998,5.81399993 18.4679998,6.49799992 L17.3279998,7.9799999 C15.7319998,7.35299991 14.0219998,7.01099991 12.2549998,7.01099991 C9.97499987,6.95399991 7.6949999,7.52399991 5.69999993,8.66399989 L1.13999999,2.62199997 L1.08299999,2.62199997 C0.626999992,7.9799999 0.341999996,13.9649998 0.341999996,16.9859998 C0.341999996,23.9399997 1.93799998,25.3079997 3.87599995,26.9039997 C5.35799993,28.1009996 7.01099991,29.5259996 8.0939999,34.0289996 C8.77799989,36.7649995 9.23399988,37.3919995 10.8299999,37.3919995 C12.1979998,37.3919995 12.8249998,36.8789995 13.4519998,34.5419996 C14.6489998,30.0959996 17.0999998,27.8729997 19.3229998,25.8779997 C21.8879997,23.5979997 24.2249997,21.6599997 24.2249997,17.2709998 C24.2249997,14.7059998 23.8259997,12.1979998 23.0849997,9.74699988 C25.0799997,11.9699998 26.1629997,14.8769998 26.1629997,17.8979998 C26.1629997,21.3749997 24.9089997,23.7689997 20.7479997,27.4169997 C17.6129998,30.2099996 16.6439998,31.4069996 15.2759998,35.6249996 C14.3069998,38.7029995 12.5399998,41.8949995 7.7519999,41.8949995 C6.21299992,41.8949995 4.67399994,41.6099995 3.24899996,41.0399995 L3.19199996,41.1539995 C7.6379999,46.4549994 14.3069998,49.4759994 21.2039997,49.3619994 C34.3709996,49.3619994 44.1752924,39.2729995 44.1752924,26.2199997 C44.2319994,14.2499998 35.9669995,4.84499994 23.4269997,3.41999996 Z M8.83499989,23.9399997 C7.52399991,23.5979997 6.15599992,23.4269997 4.73099994,23.4269997 L4.73099994,23.3699997 C4.90199994,22.6859997 5.18699993,22.0019997 5.69999993,21.4889997 C7.01099991,21.8879997 8.1509999,22.7429997 8.89199989,23.8259997 L8.83499989,23.9399997 Z" id="Shape"></path>
            </g>
        </g>
    </g>
</svg>