<?xml version="1.0" encoding="UTF-8"?>
<svg version="1.1" viewBox="0 0 62 55" xmlns="http://www.w3.org/2000/svg" xmlns:xlink="http://www.w3.org/1999/xlink">
  <title>image@3x</title>
  <defs>
    <path id="a" d="m6.2562 0c-3.4518 0-6.25 2.7982-6.25 6.25v31.25c0 3.4518 2.7982 6.25 6.25 6.25h37.5c1.6576 0 3.2473-0.65848 4.4194-1.8306 1.1721-1.1721 1.8306-2.7618 1.8306-4.4194v-31.25c0-3.4518-2.7982-6.25-6.25-6.25h-37.5z" />
    <filter id="b" x="-17.5%" y="-15.4%" width="135%" height="140%">
      <feMorphology in="SourceAlpha" operator="dilate" radius="0.25" result="shadowSpreadOuter1" />
      <feOffset dx="0" dy="2" in="shadowSpreadOuter1" result="shadowOffsetOuter1" />
      <feGaussianBlur in="shadowOffsetOuter1" result="shadowBlurOuter1" stdDeviation="2.5" />
      <feComposite in="shadowBlurOuter1" in2="SourceAlpha" operator="out" result="shadowBlurOuter1" />
      <feColorMatrix in="shadowBlurOuter1" values="0 0 0 0 0.185599288   0 0 0 0 0.20886257   0 0 0 0 0.268200861  0 0 0 0.15 0" />
    </filter>
  </defs>
  <g fill="none" fill-rule="evenodd">
    <g transform="translate(-698 -352)" fill-rule="nonzero">
      <g transform="translate(596 256)">
        <g transform="translate(83 100)">
          <g transform="translate(25)">
            <g id="Path">
              <use fill="black" filter="url(#b)" xlink:href="#a" />
              <use fill="#E3E7EB" stroke="#8F9BB3" stroke-width=".5" xlink:href="#a" />
            </g>
            <path id="c" d="m43.756 3.125h-37.5c-1.7259 0-3.125 1.3991-3.125 3.125v28.125l8.2688-7.3562c0.52661-0.52469 1.35-0.60572 1.9688-0.19375l8.3125 5.5406 11.594-11.594c0.47523-0.47569 1.2015-0.59401 1.8031-0.29375l11.803 6.0844v-20.312c0-1.7259-1.3991-3.125-3.125-3.125z" fill="#8F9BB3" />
            <path d="m18.756 14.062c0 1.6747-0.89343 3.2222-2.3438 4.0595-1.4503 0.83734-3.2372 0.83734-4.6875 0-1.4503-0.83734-2.3438-2.3848-2.3438-4.0595 0-2.5888 2.0987-4.6875 4.6875-4.6875s4.6875 2.0987 4.6875 4.6875z" fill="#E3E7EB" />
          </g>
        </g>
      </g>
    </g>
  </g>
</svg>