<?xml version="1.0" encoding="UTF-8"?>
<svg viewBox="0 0 24 24" version="1.1" xmlns="http://www.w3.org/2000/svg" xmlns:xlink="http://www.w3.org/1999/xlink">
    <title>AF427389-C293-4BA9-8B7C-50B2538141B9@3x</title>
    <g id="Page-1" stroke="none" stroke-width="1" fill="none" fill-rule="evenodd">
        <g id="Home" transform="translate(-1237.000000, -63.000000)">
            <g id="Header" transform="translate(0.000000, 42.000000)">
                <g id="icon/heart" transform="translate(1237.000000, 21.000000)">
                    <rect id="Rectangle" x="0" y="0" width="24" height="24"></rect>
                    <g id="file-earmark-text" transform="translate(6.000000, 3.000000)" fill="#2F3544" fill-rule="nonzero">
                        <path d="M2.16666667,0 L8.125,0 L8.125,1.08333333 L2.16666667,1.08333333 C1.56835819,1.08333333 1.08333333,1.56835819 1.08333333,2.16666667 L1.08333333,15.1666667 C1.08333333,15.7649751 1.56835819,16.25 2.16666667,16.25 L10.8333333,16.25 C11.4316418,16.25 11.9166667,15.7649751 11.9166667,15.1666667 L11.9166667,4.875 L13,4.875 L13,15.1666667 C13,16.3632836 12.0299503,17.3333333 10.8333333,17.3333333 L2.16666667,17.3333333 C0.970049709,17.3333333 0,16.3632836 0,15.1666667 L0,2.16666667 C0,0.970049709 0.970049709,0 2.16666667,0 Z" id="Path"></path>
                        <path d="M8.125,3.25 L8.125,0 L13,4.875 L9.75,4.875 C8.85253728,4.875 8.125,4.14746272 8.125,3.25 Z" id="Path"></path>
                        <path d="M3.25,12.7833333 C3.25,12.3046866 3.49251243,11.9166667 3.79166667,11.9166667 L5.95833333,11.9166667 C6.25748757,11.9166667 6.5,12.3046866 6.5,12.7833333 C6.5,13.2619801 6.25748757,13.65 5.95833333,13.65 L3.79166667,13.65 C3.49251243,13.65 3.25,13.2619801 3.25,12.7833333 Z M3.25,10.6166667 C3.25,10.1380199 3.49251243,9.75 3.79166667,9.75 L9.20833333,9.75 C9.50748757,9.75 9.75,10.1380199 9.75,10.6166667 C9.75,11.0953134 9.50748757,11.4833333 9.20833333,11.4833333 L3.79166667,11.4833333 C3.49251243,11.4833333 3.25,11.0953134 3.25,10.6166667 Z M3.25,8.45 C3.25,7.97135322 3.49251243,7.58333333 3.79166667,7.58333333 L9.20833333,7.58333333 C9.50748757,7.58333333 9.75,7.97135322 9.75,8.45 C9.75,8.92864678 9.50748757,9.31666667 9.20833333,9.31666667 L3.79166667,9.31666667 C3.49251243,9.31666667 3.25,8.92864678 3.25,8.45 Z" id="Shape"></path>
                    </g>
                </g>
            </g>
        </g>
    </g>
</svg>