<?xml version="1.0" encoding="UTF-8"?>
<svg width="24px" height="24px" viewBox="0 0 24 24" version="1.1" xmlns="http://www.w3.org/2000/svg" xmlns:xlink="http://www.w3.org/1999/xlink">
    <title>3970A481-204A-4D02-BBE2-E8066036A343@3x</title>
    <g id="Page-1" stroke="none" stroke-width="1" fill="none" fill-rule="evenodd">
        <g id="Home" transform="translate(-198.000000, -2004.000000)">
            <g id="Footer" transform="translate(-1.000000, 1871.000000)">
                <g id="Group-3" transform="translate(99.000000, 131.000000)">
                    <g id="icon" transform="translate(100.000000, 2.000000)">
                        <rect id="Rectangle" x="0" y="0" width="24" height="24"></rect>
                        <g id="twitter" transform="translate(2.000000, 2.000000)" fill-rule="nonzero">
                            <path d="M0,10 C0,4.47716667 4.47716667,0 10,0 C15.5228333,0 20,4.47716667 20,10 C20,15.5228333 15.5228333,20 10,20 C4.47716667,20 0,15.5228333 0,10 Z" id="Path" fill="#FFFFFF"></path>
                            <path d="M9.7005,8.128125 L9.7215,8.47416667 L9.37175,8.43179167 C8.09870833,8.269375 6.98654167,7.71854167 6.04220833,6.79345833 L5.58058333,6.33445833 L5.46166667,6.67341667 C5.20983333,7.42904167 5.37070833,8.227 5.89533333,8.76366667 C6.175125,9.06029167 6.11216667,9.10266667 5.62954167,8.926125 C5.46166667,8.869625 5.31475,8.82725 5.30079167,8.84841667 C5.25183333,8.897875 5.41970833,9.54045833 5.55258333,9.79470833 C5.73445833,10.1477917 6.10516667,10.4937917 6.510875,10.6985833 L6.853625,10.861 L6.44791667,10.8680833 C6.05620833,10.8680833 6.04220833,10.875125 6.08420833,11.0234167 C6.22408333,11.4824167 6.77666667,11.9697083 7.39220833,12.1815417 L7.82591667,12.3298333 L7.44816667,12.5557917 C6.88858333,12.8806667 6.23108333,13.06425 5.57358333,13.078375 C5.25879167,13.0854583 5,13.1136667 5,13.134875 C5,13.2055 5.853375,13.6009583 6.35,13.7562917 C7.839875,14.2152917 9.60958333,14.0175833 10.9385833,13.23375 C11.882875,12.675875 12.8271667,11.5671667 13.2678333,10.4937917 C13.5056667,9.92179167 13.7435,8.87666667 13.7435,8.37529167 C13.7435,8.05045833 13.7644583,8.00808333 14.1561667,7.61970833 C14.387,7.39370833 14.6038333,7.14654167 14.6458333,7.07595833 C14.71575,6.94179167 14.7087917,6.94179167 14.3520417,7.06183333 C13.7575,7.27366667 13.6735417,7.24541667 13.9673333,6.92766667 C14.1841667,6.70166667 14.4429583,6.29208333 14.4429583,6.17204167 C14.4429583,6.150875 14.3380417,6.18616667 14.219125,6.24970833 C14.09325,6.32033333 13.8134583,6.42625 13.6035833,6.48983333 L13.225875,6.609875 L12.883125,6.37683333 C12.6942917,6.24970833 12.4284583,6.1085 12.2885833,6.066125 C11.9318333,5.96725 11.38625,5.981375 11.0645,6.094375 C10.190125,6.41216667 9.63754167,7.23129167 9.7005,8.128125 Z" id="Path" fill="#2F3544"></path>
                        </g>
                    </g>
                </g>
            </g>
        </g>
    </g>
</svg>