<?xml version="1.0" encoding="UTF-8"?>
<svg width="24px" height="24px" viewBox="0 0 24 24" version="1.1" xmlns="http://www.w3.org/2000/svg" xmlns:xlink="http://www.w3.org/1999/xlink">
    <title>2460EA10-C970-4B41-9720-16C45DE99E55@3x</title>
    <g id="Page-1" stroke="none" stroke-width="1" fill="none" fill-rule="evenodd">
        <g id="Home" transform="translate(-1117.000000, -63.000000)">
            <g id="Header" transform="translate(0.000000, 42.000000)">
                <g id="icon/heart" transform="translate(1117.000000, 21.000000)">
                    <rect id="Rectangle" x="0" y="0" width="24" height="24"></rect>
                    <g id="list-stars" transform="translate(4.000000, 5.000000)" fill="#2F3544" fill-rule="nonzero">
                        <path d="M4.85714286,11.9 C4.85714286,11.3634948 5.12896997,10.9285714 5.46428571,10.9285714 L16.3928571,10.9285714 C16.7281729,10.9285714 17,11.3634948 17,11.9 C17,12.4365052 16.7281729,12.8714286 16.3928571,12.8714286 L5.46428571,12.8714286 C5.12896997,12.8714286 4.85714286,12.4365052 4.85714286,11.9 Z M4.85714286,7.04285714 C4.85714286,6.50635196 5.12896997,6.07142857 5.46428571,6.07142857 L16.3928571,6.07142857 C16.7281729,6.07142857 17,6.50635196 17,7.04285714 C17,7.57936233 16.7281729,8.01428571 16.3928571,8.01428571 L5.46428571,8.01428571 C5.12896997,8.01428571 4.85714286,7.57936233 4.85714286,7.04285714 Z M4.85714286,2.18571429 C4.85714286,1.6492091 5.12896997,1.21428571 5.46428571,1.21428571 L16.3928571,1.21428571 C16.7281729,1.21428571 17,1.6492091 17,2.18571429 C17,2.72221947 16.7281729,3.15714286 16.3928571,3.15714286 L5.46428571,3.15714286 C5.12896997,3.15714286 4.85714286,2.72221947 4.85714286,2.18571429 Z" id="Shape"></path>
                        <path d="M1.50814286,0.235571429 C1.55054818,0.0981253143 1.67758961,0.00437020818 1.82142857,0.00437020818 C1.96526753,0.00437020818 2.09230897,0.0981253143 2.13471429,0.235571429 L2.33142857,0.879142857 C2.37392857,1.01878571 2.50142857,1.11471429 2.64471429,1.11471429 L3.31378571,1.11471429 C3.62828571,1.11471429 3.76307143,1.51907143 3.51292857,1.71335714 L2.94464286,2.15414286 C2.83469832,2.24012766 2.78928025,2.38507895 2.8305,2.51842857 L3.04057143,3.20935714 C3.13528571,3.52021429 2.78192857,3.77035714 2.52692857,3.57364286 L2.02057143,3.18021429 C1.90345746,3.08905618 1.73939968,3.08905618 1.62228571,3.18021429 L1.11592857,3.57242857 C0.860928571,3.77035714 0.508785714,3.52021429 0.602285714,3.20935714 L0.812357143,2.51721429 C0.853020501,2.38423126 0.807656606,2.23993547 0.698214286,2.15414286 L0.129928571,1.71335714 C-0.120214286,1.51907143 0.0145714286,1.11471429 0.329071429,1.11471429 L0.996928571,1.11471429 C1.14228421,1.11426851 1.27012875,1.01850851 1.31142857,0.879142857 L1.50814286,0.235571429 Z M1.50814286,5.09271429 C1.55054818,4.95526817 1.67758961,4.86151307 1.82142857,4.86151307 C1.96526753,4.86151307 2.09230897,4.95526817 2.13471429,5.09271429 L2.33142857,5.73628571 C2.37392857,5.87592857 2.50142857,5.97185714 2.64471429,5.97185714 L3.31378571,5.97185714 C3.62828571,5.97185714 3.76307143,6.37621429 3.51292857,6.5705 L2.94464286,7.01128571 C2.83469832,7.09727052 2.78928025,7.24222181 2.8305,7.37557143 L3.04057143,8.0665 C3.13528571,8.37614286 2.78192857,8.6275 2.52692857,8.43078571 L2.02057143,8.03735714 C1.90345746,7.94619904 1.73939968,7.94619904 1.62228571,8.03735714 L1.11592857,8.42957143 C0.860928571,8.6275 0.508785714,8.37735714 0.602285714,8.0665 L0.812357143,7.37435714 C0.853020501,7.24137412 0.807656606,7.09707832 0.698214286,7.01128571 L0.129928571,6.5705 C-0.120214286,6.37621429 0.0145714286,5.97185714 0.329071429,5.97185714 L0.996928571,5.97185714 C1.14228421,5.97141137 1.27012875,5.87565137 1.31142857,5.73628571 L1.50814286,5.09271429 L1.50814286,5.09271429 Z M1.50814286,9.94985714 C1.55054818,9.81241103 1.67758961,9.71865592 1.82142857,9.71865592 C1.96526753,9.71865592 2.09230897,9.81241103 2.13471429,9.94985714 L2.33142857,10.5934286 C2.37392857,10.7330714 2.50142857,10.829 2.64471429,10.829 L3.31378571,10.829 C3.62828571,10.829 3.76307143,11.2333571 3.51292857,11.4276429 L2.94464286,11.8684286 C2.83469832,11.9544134 2.78928025,12.0993647 2.8305,12.2327143 L3.04057143,12.9236429 C3.13528571,13.2332857 2.78192857,13.4846429 2.52692857,13.2879286 L2.02057143,12.8945 C1.90345746,12.8033419 1.73939968,12.8033419 1.62228571,12.8945 L1.11592857,13.2867143 C0.860928571,13.4846429 0.508785714,13.2345 0.602285714,12.9236429 L0.812357143,12.2315 C0.853020501,12.098517 0.807656606,11.9542212 0.698214286,11.8684286 L0.129928571,11.4276429 C-0.120214286,11.2333571 0.0145714286,10.829 0.329071429,10.829 L0.996928571,10.829 C1.14228421,10.8285542 1.27012875,10.7327942 1.31142857,10.5934286 L1.50814286,9.94985714 L1.50814286,9.94985714 Z" id="Shape"></path>
                    </g>
                </g>
            </g>
        </g>
    </g>
</svg>