<?xml version="1.0" encoding="UTF-8"?>
<svg width="24px" height="24px" viewBox="0 0 24 24" version="1.1" xmlns="http://www.w3.org/2000/svg" xmlns:xlink="http://www.w3.org/1999/xlink">
    <title>3E8EE650-2126-4D96-8118-5DC57C5E4497@3x</title>
    <g id="Page-1" stroke="none" stroke-width="1" fill="none" fill-rule="evenodd">
        <g id="Home" transform="translate(-366.000000, -2004.000000)">
            <g id="Footer" transform="translate(-1.000000, 1871.000000)">
                <g id="Group-3" transform="translate(99.000000, 131.000000)">
                    <g id="icon" transform="translate(268.000000, 2.000000)">
                        <rect id="Rectangle" x="0" y="0" width="24" height="24"></rect>
                        <g id="youtube" transform="translate(2.000000, 2.000000)" fill-rule="nonzero">
                            <path d="M0,10 C0,4.47716667 4.47716667,0 10,0 C15.5228333,0 20,4.47716667 20,10 C20,15.5228333 15.5228333,20 10,20 C4.47716667,20 0,15.5228333 0,10 Z" id="Path" fill="#FFFFFF"></path>
                            <path d="M15.1104167,7.5305 C14.98775,7.05925 14.6262917,6.68816667 14.1673333,6.56220833 C13.3355833,6.33333333 10,6.33333333 10,6.33333333 C10,6.33333333 6.66441667,6.33333333 5.832625,6.56220833 C5.373625,6.68816667 5.01216667,7.05925 4.8895,7.5305 C4.66666667,8.384625 4.66666667,10.1666667 4.66666667,10.1666667 C4.66666667,10.1666667 4.66666667,11.9486667 4.8895,12.8028333 C5.01216667,13.2740833 5.373625,13.6451667 5.832625,13.7711667 C6.66441667,14 10,14 10,14 C10,14 13.3355833,14 14.1673333,13.7711667 C14.6262917,13.6451667 14.98775,13.2740833 15.1104167,12.8028333 C15.3333333,11.9486667 15.3333333,10.1666667 15.3333333,10.1666667 C15.3333333,10.1666667 15.3333333,8.384625 15.1104167,7.5305 Z" id="Path" fill="#2F3544"></path>
                            <polygon id="Path" fill="#FFFFFF" points="9 12 9 8.66666667 11.6666667 10.333375"></polygon>
                        </g>
                    </g>
                </g>
            </g>
        </g>
    </g>
</svg>